<svg width="1143" height="1230" viewBox="0 0 1143 1230" fill="none" xmlns="http://www.w3.org/2000/svg">
<path d="M337.916 738.964C343.41 653.068 333.881 911.133 336.225 997.172C337.962 1060.97 336.631 1068.06 283.87 1063.41C247.583 1060.22 203.656 1066.86 172.025 1044.14C118.439 1005.66 133.334 901.038 153.074 849.182C178.14 783.333 222.151 729.839 296.406 733.452C320.267 734.613 379.952 747.045 320.746 744.071" stroke="black" stroke-width="30" stroke-linecap="round"/>
<path d="M690.619 768.616C696.816 733.47 697.424 787.502 697.533 796.047C698.412 865.204 700.49 940.561 717.569 1007.92C725.092 1037.59 826.494 995.667 846.527 981.399C878.228 958.822 931.232 910.254 937.729 869.131C944.593 825.678 893.346 750.63 860.182 727.109C827.791 704.136 764.161 693.924 724.796 697.813C696.325 700.626 688.496 727.706 677.622 750.054" stroke="black" stroke-width="30" stroke-linecap="round"/>
<path d="M343.957 796.973C315.421 760.927 346.995 687.475 354.532 644.728C369.418 560.308 380.292 372.112 506.224 386.757C605.957 398.356 646.398 490.625 669.451 575.975C674.549 594.849 733.257 726.031 696.183 737.058" stroke="black" stroke-width="30" stroke-linecap="round"/>
<path d="M169.473 863.824C138.473 858.358 140.684 852.928 163.384 826.596C183.061 803.769 204.848 782.858 226.334 761.771C227.967 760.169 256.7 733.09 255.749 738.486C247.906 782.962 187.492 843.803 162.876 880.738C153.658 894.569 138.986 922.256 122.533 930.117C96.4208 942.593 154.236 881.6 172.154 858.874C182.124 846.229 308.516 687.802 330.075 716.793C352.093 746.4 204.47 888.189 187.372 905.847C14.4504 1084.43 263.916 804.562 279.505 819.051C303.5 841.353 198.767 955.969 186.453 972.571C175.613 987.186 147.661 1034.03 155.882 1017.8C175.912 978.243 207.367 944.021 238.525 913.059C249.669 901.984 353.256 797.17 328.239 857.924C299.252 928.318 246.606 994.858 183.059 1037.95C135.888 1069.95 259.514 948.515 311.438 925.011C392.296 888.41 310.634 987.603 294.562 1007.9C285.146 1019.8 207.282 1093.22 253.602 1060.79C268.673 1050.24 328.637 1022.03 306.397 1009.99" stroke="black" stroke-width="30" stroke-linecap="round"/>
<path d="M669.276 797.391C676.943 760.161 691.909 734.297 721.034 708.9C727.009 703.689 800.705 657.94 775.329 693.165C743.446 737.421 712.273 781.055 670.413 816.573C657.55 827.487 615.441 846.65 632.053 849.58C647.425 852.29 696.959 810.281 709.032 802.594C753.289 774.414 800.088 733.213 849.326 714.348C891.219 698.297 797.483 788.946 762.893 817.514C746.42 831.119 664.011 901.736 673.775 894.899C726.127 858.241 773.556 825.075 830.207 794.585C851.679 783.028 886.11 772.638 856.352 807.781C810.469 861.968 750.067 902.034 705.238 957.39C664.122 1008.16 776.717 921.504 784.95 915.406C793.875 908.796 909.48 812.8 923.88 840.025C933.363 857.956 844.015 928.782 834.868 937.314C807.432 962.902 780.086 989.051 750.674 1012.4C747.977 1014.54 706.386 1037.93 736.083 1023.39C794.148 994.961 846.415 961.379 900.533 926.295C940.051 900.677 901.388 932.228 887.876 941.689" stroke="black" stroke-width="30" stroke-linecap="round"/>
<path d="M350.913 757.525C301.354 742.995 317.539 675.116 324.16 637.565C342.479 533.675 403.067 369.193 519.34 338.001C642.525 304.955 727.724 478.547 731.895 572.975C732.52 587.122 730.266 767.424 731.754 673.732C733.016 594.286 716.366 496.334 671.7 429.945C611.613 340.636 568.737 363.965 484.157 406.819C374.614 462.321 290.423 588.149 295.269 714.271C299.844 833.344 349.598 629.581 354.038 611.65C377.459 517.07 438.528 336.566 566.445 339.98C615.463 341.288 649.603 417.745 669.279 453.923C702.035 514.148 721.297 580.56 743.584 645.086C756.328 681.983 751.603 661.98 745.697 638.228C732.425 584.845 730.239 528.532 703.212 479.339C631.717 349.206 486.571 363.615 391.943 463.32C347.568 510.076 313.934 577.992 301.808 641.306C301.09 645.054 294.804 741.237 320.64 724.167C340.957 710.745 351.903 641.792 358.783 620.621C381.808 549.778 398.975 476.275 443.835 415.075C534.166 291.84 632.926 398.247 686.456 494.914C711.775 540.635 730.662 605.789 722.677 658.573C715.619 705.229 680.974 706.826 642.348 719.43" stroke="black" stroke-width="30" stroke-linecap="round"/>
<path d="M700.28 160.208C702.257 129.302 691.267 196.212 690.798 203.73C689.237 228.738 692.106 272.654 665.025 267.879" stroke="black" stroke-width="30" stroke-linecap="round"/>
<path d="M756.917 300.353C742.703 277.278 829.801 270.065 826.989 272.034" stroke="black" stroke-width="30" stroke-linecap="round"/>
<path d="M858.839 264.992C862.34 234.892 852.375 237.767 832.551 256.892C704.266 380.657 591.136 521.067 479.216 659.415C415.587 738.069 355.509 819.675 290.101 896.881C243.6 951.769 191.108 1001.51 151.31 1061.8C102.831 1135.25 195.3 1014.97 201.571 1005.99C310.64 849.902 433.223 702.812 546.993 550.107C638.739 426.965 712.172 289.496 806.45 169.141C1010.43 -91.2629 389.404 682.842 189.045 946.043C185.996 950.047 91.8389 1082.9 122.915 1059.11C243.326 966.922 336.491 815.134 429.678 698.029C527.941 574.545 622.407 445.763 724.58 325.622C786.589 252.708 608.544 477.883 549.859 553.5C436.179 699.981 320.188 847.806 190.96 981.026C175.214 997.258 59.8353 1111.45 136.877 1025.77C277.786 869.06 426.345 721.407 576.874 573.854C632.285 519.538 769.792 416.33 782.361 345.05" stroke="#FF0000" stroke-width="30" stroke-linecap="round"/>
<path d="M139.614 335.653C110.637 233.701 201.369 326.685 235.871 359.555C425.981 540.672 620.425 710.604 824.501 875.626C872.935 914.792 920.155 954.153 971.236 989.845C1009.12 1016.32 995.009 1014.69 961.717 997.983C785.983 909.809 630.615 739.331 499.993 597.254C402.198 490.883 271.796 392.634 188.622 273.849C117.176 171.813 342.269 469.95 419.118 567.98C534.468 715.122 664.851 811.727 840.609 872.692C849.446 875.758 869.323 881.707 862.941 863.927C846.103 817.015 783.535 790.013 744.077 768.48C565.038 670.777 397.48 559.16 224.157 452.187C200.505 437.589 133.941 404.09 161.001 397.744C221.62 383.528 302.507 440.164 346.634 471.473C543.775 611.347 686.337 844.293 911.474 942.353C1023.76 991.258 904.912 916.417 870.917 890.74C687.363 752.097 479.837 658.4 307.735 502.147C259.594 458.439 208.331 411.735 176.181 354.227C164.414 333.178 149.394 284.681 194.357 300.267C253.164 320.651 299.313 385.059 337.866 429.508C438.934 546.03 532.923 670.528 649.899 772.084C716.123 829.579 819.312 902.457 896.288 936.788" stroke="#FF0000" stroke-width="30" stroke-linecap="round"/>
</svg>
