<svg width="959" height="1108" viewBox="0 0 959 1108" fill="none" xmlns="http://www.w3.org/2000/svg">
<path d="M243.059 664.034C248.553 578.139 239.024 836.203 241.367 922.242C243.105 986.037 241.773 993.128 189.013 988.484C152.725 985.29 108.798 991.933 77.1675 969.214C23.5818 930.726 38.4766 826.108 58.2163 774.253C83.2831 708.404 127.294 654.91 201.549 658.523C225.409 659.684 285.095 672.115 225.888 669.142" stroke="black" stroke-width="30" stroke-linecap="round"/>
<path d="M595.762 693.686C601.959 658.54 602.566 712.572 602.675 721.117C603.555 790.275 605.632 865.632 622.712 932.992C630.235 962.662 731.637 920.737 751.67 906.47C783.37 883.893 836.375 835.324 842.871 794.202C849.736 750.748 798.489 675.701 765.325 652.179C732.934 629.206 669.303 618.995 629.939 622.884C601.467 625.697 593.639 652.776 582.765 675.125" stroke="black" stroke-width="30" stroke-linecap="round"/>
<path d="M249.1 722.043C220.564 685.997 252.137 612.545 259.675 569.799C274.56 485.379 285.435 297.182 411.366 311.828C511.1 323.426 551.54 415.696 574.593 501.046C579.691 519.919 638.399 651.101 601.326 662.128" stroke="black" stroke-width="30" stroke-linecap="round"/>
<path d="M74.616 788.895C43.6153 783.428 45.8271 777.998 68.5262 751.666C88.2038 728.839 109.99 707.929 131.477 686.841C133.109 685.239 161.843 658.161 160.891 663.556C153.049 708.033 92.6345 768.873 68.0181 805.809C58.8006 819.639 44.1282 847.326 27.676 855.187C1.56338 867.663 59.3783 806.67 77.2966 783.944C87.2663 771.3 213.659 612.872 235.218 641.863C257.236 671.471 109.612 813.26 92.5146 830.917C-80.407 1009.5 169.058 729.632 184.648 744.122C208.643 766.423 103.909 881.04 91.5958 897.641C80.7555 912.256 52.8036 959.101 61.0245 942.867C81.055 903.314 112.509 869.091 143.667 838.129C154.812 827.055 258.398 722.24 233.381 782.994C204.395 853.388 151.748 919.928 88.2016 963.025C41.0301 995.016 164.656 873.586 216.581 850.082C297.439 813.48 215.777 912.673 199.705 932.973C190.289 944.866 112.424 1018.29 158.745 985.858C173.815 975.305 233.779 947.103 211.539 935.06" stroke="black" stroke-width="30" stroke-linecap="round"/>
<path d="M574.418 722.462C582.085 685.231 597.052 659.367 626.176 633.97C632.152 628.76 705.848 583.01 680.471 618.236C648.589 662.492 617.416 706.125 575.555 741.643C562.693 752.557 520.584 771.721 537.196 774.65C552.568 777.36 602.102 735.351 614.175 727.664C658.431 699.485 705.231 658.283 754.469 639.418C796.362 623.368 702.626 714.016 668.036 742.585C651.563 756.19 569.153 826.806 578.918 819.969C631.27 783.311 678.698 750.146 735.349 719.655C756.822 708.098 791.252 697.708 761.494 732.852C715.612 787.038 655.21 827.105 610.381 882.46C569.264 933.232 681.859 846.574 690.093 840.476C699.017 833.867 814.622 737.87 829.022 765.096C838.506 783.026 749.158 853.852 740.01 862.384C712.575 887.972 685.229 914.121 655.816 937.473C653.12 939.614 611.529 962.997 641.225 948.458C699.29 920.031 751.558 886.449 805.676 851.366C845.194 825.747 806.531 857.298 793.019 866.759" stroke="black" stroke-width="30" stroke-linecap="round"/>
<path d="M256.056 682.595C206.496 668.066 222.682 600.186 229.303 562.635C247.621 458.746 308.21 294.264 424.483 263.072C547.668 230.026 632.867 403.617 637.037 498.046C637.662 512.192 635.409 692.494 636.897 598.802C638.158 519.356 621.508 421.404 576.842 355.015C516.756 265.707 473.88 289.035 389.3 331.889C279.757 387.391 195.566 513.22 200.412 639.341C204.987 758.414 254.74 554.651 259.181 536.72C282.602 442.141 343.671 261.636 471.587 265.05C520.606 266.359 554.746 342.816 574.422 378.993C607.178 439.219 626.44 505.631 648.727 570.157C661.471 607.054 656.746 587.051 650.84 563.298C637.567 509.916 635.381 453.602 608.355 404.409C536.86 274.277 391.714 288.685 297.085 388.39C252.71 435.146 219.077 503.062 206.95 566.377C206.232 570.125 199.946 666.307 225.783 649.238C246.099 635.815 257.045 566.862 263.926 545.691C286.951 474.848 304.118 401.346 348.978 340.145C439.309 216.91 538.068 323.317 591.599 419.984C616.917 465.705 635.805 530.859 627.819 583.644C620.761 630.299 586.117 631.896 547.491 644.501" stroke="black" stroke-width="30" stroke-linecap="round"/>
<path d="M605.423 85.2786C607.399 54.372 596.41 121.282 595.941 128.8C594.38 153.808 597.248 197.724 570.168 192.949" stroke="black" stroke-width="30" stroke-linecap="round"/>
<path d="M662.06 225.423C647.845 202.348 734.943 195.136 732.131 197.105" stroke="black" stroke-width="30" stroke-linecap="round"/>
</svg>
