<svg width="517" height="573" viewBox="0 0 517 573" fill="none" xmlns="http://www.w3.org/2000/svg">
    <path d="M55.1172 149.574C33.456 130.319 47.5097 200.641 46.5282 214.381C43.2226 260.661 21.2402 331.423 34.4256 377.572C34.8854 379.182 89.8284 403.84 94.5485 406.462C145.517 434.778 220.411 453.937 243.294 513.434C248.285 526.411 245.751 497.516 246.417 492.352C251.483 453.094 251.883 414.847 251.883 375.23C251.883 310.422 251.883 245.614 251.883 180.806C251.883 158.614 257.812 126.403 251.493 104.286C248.336 93.2378 164.278 134.581 159.356 136.69C114.998 155.701 75.6075 193.954 29.3503 206.964C-3.12922 216.099 35.8685 170.554 41.0625 163.628" stroke="black" stroke-width="30" stroke-linecap="round"/>
    <path d="M301.074 205.793C303.284 249.99 329.779 285.979 328.013 331.895C327.378 348.386 294.047 426.733 294.047 388.504" stroke="black" stroke-width="30" stroke-linecap="round"/>
    <path d="M336.211 121.465C331.743 121.465 353.855 150.506 357.684 158.163C387.464 217.724 392.849 280.572 392.43 346.34C392.256 373.691 396.288 438.209 361.197 450.969C342.917 457.617 359.656 441.194 364.321 437.695" stroke="black" stroke-width="30" stroke-linecap="round"/>
    <path d="M427.567 2C418.162 3.34351 444.511 36.3591 446.306 39.4792C483.192 103.575 511.054 169.857 514.237 244.834C517.434 320.137 495.362 396.312 468.169 465.805C457.471 493.145 445.849 523.744 426.786 546.619C408.162 568.968 395.018 562.339 371.348 571.215" stroke="black" stroke-width="30" stroke-linecap="round"/>
    <path d="M12.9533 254.984C23.6074 208.817 72.9773 164.776 106.261 133.958C146.334 96.8528 97.5952 177.837 93.3774 186.272C67.9236 237.18 -20.7509 383.264 7.48756 333.847C39.1366 278.461 100.721 234.15 138.665 181.978C140.824 179.01 182.87 118.04 190.979 126.15C195.574 130.744 154.922 199.105 152.719 203.45C123.387 261.301 17.6692 423.475 60.5831 374.84C113.114 315.305 159.128 245.578 208.157 182.759C210.764 179.418 234.06 138.714 222.212 162.848C202.747 202.5 186.529 243.736 167.165 283.484C148.328 322.148 128.41 360.284 109.775 399.045C103.164 412.794 92.1126 440.58 107.432 410.367C136.638 352.767 177.687 254.211 243.294 228.437C257.056 223.03 236.819 256.255 236.657 256.546C216.295 293.198 194.477 328.913 174.582 365.86C162.468 388.358 120.137 449.136 141.398 434.962C161.525 421.544 175.436 395.439 188.637 376.011C193.768 368.46 214.79 327.6 226.116 327.6C230.694 327.6 210.871 383.902 209.719 386.942C204.281 401.293 144.403 488.219 176.144 457.216C184.626 448.931 247.463 393.076 241.732 405.682C229.898 431.717 209.719 450.11 209.719 479.859" stroke="black" stroke-width="30" stroke-linecap="round"/>
</svg>
